<?xml version="1.0" standalone="no"?>
<!DOCTYPE svg PUBLIC "-//W3C//DTD SVG 20010904//EN"
 "http://www.w3.org/TR/2001/REC-SVG-20010904/DTD/svg10.dtd">
<svg version="1.0" xmlns="http://www.w3.org/2000/svg"
 width="600.000000pt" height="600.000000pt" viewBox="0 0 600.000000 600.000000"
 preserveAspectRatio="xMidYMid meet">
<metadata>
Created by potrace 1.14, written by Peter Selinger 2001-2017
</metadata>
<g transform="translate(0.000000,600.000000) scale(0.100000,-0.100000)"
fill="#000000" stroke="none">
<path d="M3195 5983 c6 -5 44 -34 86 -66 98 -73 235 -215 281 -292 67 -110
104 -240 91 -319 -5 -33 -9 -36 -62 -51 -120 -33 -243 -83 -411 -167 -96 -48
-178 -88 -182 -88 -5 0 -8 7 -8 15 0 44 -59 119 -128 165 -22 15 -23 16 -7 59
30 86 12 218 -46 334 -46 90 -172 230 -303 335 l-50 39 -110 -23 c-170 -36
-526 -154 -526 -174 0 -4 14 -25 31 -46 71 -89 129 -245 129 -349 0 -88 -39
-200 -106 -303 -206 -315 -727 -635 -1635 -1002 l-57 -23 -36 -116 c-38 -126
-67 -233 -63 -237 2 -2 239 78 372 125 28 10 66 24 85 31 90 32 392 146 455
171 39 16 75 29 81 29 6 0 20 -11 32 -25 22 -25 130 -82 235 -126 l58 -23 -48
-17 c-26 -9 -106 -38 -178 -63 -234 -83 -853 -289 -1072 -356 -81 -25 -76 -17
-89 -162 -7 -83 -6 -84 42 -69 16 6 110 35 209 66 250 78 557 176 770 245 99
32 181 57 182 56 2 -2 -2 -39 -8 -83 -9 -59 -9 -104 -1 -165 6 -45 8 -86 4
-90 -6 -6 -58 -22 -402 -128 -69 -22 -264 -83 -435 -136 -171 -53 -320 -99
-333 -102 -32 -6 -35 -20 -27 -107 l7 -74 26 10 c28 11 624 199 867 273 77 24
189 58 248 76 99 31 109 32 124 17 15 -15 14 -19 -17 -53 -36 -42 -77 -122
-86 -171 -7 -36 24 -24 -399 -158 -320 -101 -701 -226 -714 -234 -10 -7 -3
-74 14 -128 3 -8 70 10 212 58 184 62 851 279 857 279 2 0 6 -31 9 -68 3 -37
14 -91 25 -119 l19 -51 -156 -52 c-167 -56 -434 -149 -516 -180 -27 -10 -121
-45 -208 -77 -186 -68 -176 -44 -96 -238 l51 -124 31 13 c18 8 79 35 136 60
57 26 120 53 140 60 20 8 110 44 201 80 160 66 504 196 515 196 3 0 3 -15 0
-34 -8 -41 15 -92 47 -102 25 -8 93 -7 120 2 12 4 22 -6 38 -35 25 -50 25 -48
-5 -55 -123 -31 -875 -391 -1034 -495 -16 -10 59 -127 183 -284 l78 -98 18 24
c22 28 200 185 250 221 197 141 399 260 637 377 90 43 165 79 168 79 2 0 11
-16 19 -35 41 -97 166 -234 272 -297 30 -18 54 -36 54 -40 0 -3 -26 -22 -58
-42 -175 -107 -373 -300 -450 -436 -57 -103 -75 -173 -69 -280 5 -97 13 -125
70 -237 l31 -63 95 -41 c53 -23 114 -50 136 -60 22 -10 66 -27 97 -38 l57 -19
5 26 c2 15 7 50 11 77 22 181 81 414 146 580 90 231 248 430 325 411 54 -14
255 -36 377 -43 148 -7 148 -7 185 -123 43 -138 50 -181 102 -650 50 -454 44
-424 82 -416 17 3 39 6 49 6 13 0 19 9 21 31 l3 31 29 -23 c18 -14 40 -22 55
-21 37 4 285 53 293 58 4 3 -15 25 -43 51 -112 104 -211 252 -243 362 -33 112
-14 258 47 376 91 175 316 384 490 454 113 46 187 93 247 156 97 101 724 385
1405 635 121 44 227 84 235 89 15 8 55 149 46 159 -17 17 -1132 -397 -1460
-542 -32 -14 -61 -26 -63 -26 -3 0 -2 15 2 33 4 17 11 90 14 161 l6 130 245
87 c135 49 484 168 777 264 l531 176 7 80 c4 44 5 82 2 85 -6 6 -135 -33 -572
-171 -115 -37 -246 -78 -290 -92 -162 -51 -295 -95 -507 -165 -119 -40 -219
-70 -222 -67 -3 3 -8 19 -12 35 -5 27 -2 31 51 57 104 51 222 182 264 294 l22
59 222 68 c122 38 301 94 397 124 96 30 195 60 220 67 48 15 140 43 315 98
l110 34 -3 94 c-2 52 -7 98 -12 103 -5 5 -93 -18 -207 -54 -109 -34 -218 -68
-243 -76 -25 -7 -82 -24 -127 -38 -46 -14 -118 -37 -160 -50 -43 -13 -132 -40
-198 -61 -193 -60 -249 -77 -271 -82 -19 -4 -22 1 -29 52 -3 31 -15 82 -25
112 l-18 54 25 10 c13 5 27 9 31 9 8 0 242 73 322 100 30 11 123 40 205 66 83
25 229 72 325 103 96 32 210 68 253 82 l78 24 -6 35 c-9 49 -56 225 -64 238
-5 8 -28 4 -76 -14 -216 -80 -280 -102 -480 -171 -121 -41 -339 -115 -485
-163 l-265 -88 -35 33 c-49 45 -103 76 -189 106 l-74 26 84 28 c205 67 759
263 834 295 11 5 97 38 190 75 94 36 213 84 265 106 52 22 103 43 112 47 15 6
12 18 -29 104 l-45 97 -129 -65 c-70 -35 -130 -64 -132 -64 -3 0 -43 -18 -89
-39 -178 -84 -478 -205 -844 -340 -120 -45 -229 -86 -241 -91 -20 -8 -22 -6
-29 48 -3 31 -17 85 -29 120 l-23 63 27 11 c14 5 44 17 66 24 54 20 199 99
255 139 25 17 72 44 105 60 287 132 563 285 725 399 138 97 133 78 44 192 -87
111 -184 224 -194 224 -3 0 -24 -24 -45 -52 -87 -116 -313 -313 -480 -419
l-44 -28 -25 43 c-33 57 -97 113 -162 143 l-54 24 25 33 c37 49 55 100 55 159
0 73 -22 130 -75 199 l-45 58 15 65 c16 68 14 113 -10 210 -16 60 -83 183
-133 241 -59 69 -460 193 -769 238 -144 21 -250 29 -238 19z m-344 -1917 c274
-110 632 -170 885 -146 65 6 159 19 208 29 l88 19 19 -44 c21 -47 34 -112 44
-219 l7 -71 -94 -12 c-112 -14 -189 -39 -271 -89 -75 -45 -171 -141 -212 -211
-16 -29 -32 -52 -35 -52 -3 0 -20 24 -37 53 -97 162 -296 254 -573 264 -114 4
-148 2 -223 -16 -175 -42 -316 -120 -441 -246 -115 -115 -171 -248 -183 -435
-12 -196 43 -350 168 -472 115 -111 254 -164 496 -190 186 -19 395 16 538 90
80 42 196 151 240 225 l27 48 24 -35 c13 -19 24 -37 24 -39 0 -2 -18 -9 -41
-16 -71 -21 -140 -110 -122 -158 8 -20 20 -16 70 22 107 81 207 66 220 -33 4
-33 1 -44 -24 -72 -40 -44 -119 -63 -181 -42 -34 11 -46 12 -55 2 -9 -9 -1
-22 38 -57 80 -72 119 -79 203 -37 82 41 131 130 120 219 -2 19 -2 35 0 35 2
0 31 -7 65 -16 67 -17 263 -23 363 -10 54 7 62 5 70 -11 4 -10 10 -114 12
-232 3 -193 2 -223 -18 -308 -50 -215 -135 -313 -337 -389 -91 -34 -90 -35
-90 46 0 42 -5 76 -13 85 -24 29 -35 -1 -33 -90 l2 -83 -112 -21 c-188 -35
-333 -44 -592 -38 -396 10 -670 59 -862 154 l-71 36 1 108 c2 87 -1 111 -14
124 -40 40 -67 -25 -54 -130 7 -55 7 -57 -13 -46 -38 20 -122 124 -161 200
-75 146 -130 362 -152 596 -9 91 -17 134 -27 142 -22 18 -52 -2 -52 -35 0 -72
-11 -98 -52 -125 -50 -32 -117 -43 -168 -28 -48 14 -134 91 -163 145 -16 32
-22 63 -25 146 -7 183 35 314 111 353 35 18 44 19 92 8 31 -7 76 -28 107 -50
72 -51 85 -55 106 -30 9 11 33 29 53 39 44 23 146 131 183 193 113 194 119
431 15 638 l-18 37 48 6 c109 14 190 82 177 149 l-6 33 80 12 c114 18 237 56
365 111 l110 48 31 -24 c18 -13 69 -39 115 -57z m189 -586 c187 -56 275 -121
341 -253 76 -149 96 -295 65 -469 -21 -114 -55 -180 -135 -258 -124 -123 -268
-173 -496 -173 -245 -1 -420 56 -541 177 -100 100 -144 211 -144 362 0 208
104 406 272 515 67 43 218 105 303 125 90 20 210 11 335 -26z m1213 24 c86
-22 133 -49 189 -106 135 -139 211 -363 179 -532 -16 -85 -82 -215 -137 -271
-98 -98 -249 -149 -439 -148 -107 0 -131 4 -215 31 -138 45 -196 83 -248 162
-35 52 -42 71 -37 95 15 80 16 272 2 337 -14 67 -14 69 11 115 81 156 226 275
385 318 72 19 235 19 310 -1z m-944 -2316 c-2 -2 -23 -20 -46 -42 l-42 -39
-15 38 c-9 21 -16 39 -16 41 0 2 28 4 62 4 34 0 59 -1 57 -2z"/>
<path d="M1430 2805 c0 -8 16 -35 35 -61 19 -25 35 -50 35 -56 0 -6 -18 -26
-40 -45 -62 -53 -47 -96 20 -58 14 8 28 14 33 15 4 0 7 -32 7 -70 0 -77 16
-98 48 -66 13 13 17 35 17 104 -1 74 -5 96 -28 147 -16 33 -38 70 -49 82 -25
26 -78 32 -78 8z"/>
<path d="M1920 2365 c-10 -12 -11 -40 -6 -113 12 -162 19 -207 36 -207 17 0
27 76 29 222 1 62 -3 85 -15 97 -19 20 -28 20 -44 1z"/>
<path d="M2187 2173 c-14 -23 -17 -109 -7 -183 12 -90 22 -112 42 -92 17 17
17 244 -1 265 -14 18 -27 22 -34 10z"/>
<path d="M4170 2046 c0 -73 4 -116 10 -116 18 0 29 47 32 137 3 85 2 88 -19
91 -23 3 -23 2 -23 -112z"/>
<path d="M4005 1973 c-10 -25 -19 -265 -11 -297 8 -34 34 -33 43 2 3 15 7 90
7 167 1 121 -1 140 -15 143 -9 2 -20 -5 -24 -15z"/>
<path d="M2806 1969 c-70 -11 -161 -47 -190 -74 -54 -50 -40 -110 30 -134 51
-18 592 -27 764 -12 150 12 188 23 197 59 5 21 -1 31 -29 57 -80 74 -284 116
-551 114 -95 -1 -194 -5 -221 -10z m327 -96 c4 -20 5 -38 3 -40 -1 -1 -68 -6
-149 -9 l-147 -7 0 36 c0 39 -5 36 90 50 14 3 64 5 111 6 l86 1 6 -37z m174
26 c110 -14 113 -16 113 -50 l0 -29 -130 0 c-128 0 -130 0 -130 23 0 12 -3 32
-6 45 -6 20 -3 22 34 22 22 0 76 -5 119 -11z m-497 -33 c0 -8 3 -21 6 -30 5
-14 -3 -16 -52 -15 -33 0 -68 4 -79 8 -16 7 -10 12 35 29 65 25 90 27 90 8z
m693 -18 l42 -22 -35 -6 c-46 -8 -57 -3 -63 26 -5 30 2 30 56 2z"/>
<path d="M2669 1579 c-20 -38 6 -159 35 -159 17 0 33 112 22 155 -8 31 -41 33
-57 4z"/>
<path d="M2435 3171 c-197 -91 -148 -363 65 -363 118 0 194 78 195 198 0 77
-29 124 -99 159 -59 30 -106 31 -161 6z"/>
<path d="M4163 3250 c-80 -48 -95 -185 -30 -281 67 -100 224 -107 313 -14 73
75 71 159 -5 235 -75 75 -207 103 -278 60z"/>
<path d="M1095 5313 c-115 -95 -339 -322 -427 -433 -84 -107 -166 -222 -226
-322 l-41 -66 95 54 c125 73 296 191 379 264 150 131 257 277 298 405 19 59
26 157 12 161 -5 2 -46 -27 -90 -63z"/>
<path d="M5725 1854 c-16 -7 -127 -58 -245 -113 -260 -119 -479 -235 -649
-343 -156 -100 -172 -112 -300 -223 -284 -246 -373 -503 -259 -745 59 -125 50
-121 154 -66 282 152 622 418 685 537 41 77 146 197 238 274 103 86 240 293
356 538 78 165 78 169 20 141z"/>
<path d="M2817 934 c-10 -11 -9 -94 2 -94 11 0 22 83 12 93 -4 4 -10 4 -14 1z"/>
<path d="M2617 893 c-11 -10 -8 -51 3 -58 6 -4 10 8 10 29 0 37 -2 41 -13 29z"/>
<path d="M2987 873 c-11 -10 -8 -61 3 -68 6 -4 10 10 10 34 0 42 -2 46 -13 34z"/>
<path d="M2868 820 c-3 -19 -1 -29 6 -27 14 4 21 57 8 57 -5 0 -12 -14 -14
-30z"/>
<path d="M2629 679 c-40 -40 -1 -123 55 -117 55 5 73 79 30 122 -22 22 -60 20
-85 -5z"/>
<path d="M3025 675 c-46 -45 -19 -115 45 -115 65 0 94 79 44 119 -35 27 -59
26 -89 -4z"/>
<path d="M2840 603 c0 -35 3 -44 10 -33 13 20 13 67 0 75 -6 4 -10 -12 -10
-42z"/>
<path d="M2431 618 c-29 -74 -95 -528 -78 -544 3 -3 20 -7 38 -7 l33 -2 13
120 c7 66 23 174 34 240 33 194 33 196 18 206 -25 15 -49 10 -58 -13z"/>
<path d="M2657 463 c-10 -10 -8 -53 2 -53 10 0 21 24 21 46 0 15 -12 19 -23 7z"/>
<path d="M3045 414 c-7 -42 10 -73 19 -33 11 49 11 62 0 66 -7 2 -15 -12 -19
-33z"/>
<path d="M2886 424 c-11 -29 -7 -86 6 -82 14 5 30 66 23 86 -6 17 -22 15 -29
-4z"/>
</g>
</svg>
