<svg width="160" height="56" viewBox="0 0 160 56" fill="none" xmlns="http://www.w3.org/2000/svg">
<path d="M11.2911 53.8445C10.8837 53.8445 10.4862 53.8392 10.082 53.83C9.24469 53.819 8.40934 53.7453 7.58281 53.6096C6.8121 53.4754 6.0655 53.2259 5.36762 52.8692C4.67614 52.5154 4.04545 52.0516 3.49972 51.4954C2.94609 50.9458 2.48517 50.3083 2.13522 49.6082C1.78142 48.9036 1.53656 48.1484 1.40919 47.3688C1.27164 46.5311 1.19722 45.6841 1.18657 44.835C1.17809 44.55 1.16699 43.6011 1.16699 43.6011V12.3841C1.16699 12.3841 1.17881 11.4498 1.18663 11.1753C1.19683 10.3275 1.27082 9.48183 1.40796 8.64545C1.53557 7.86372 1.78061 7.10628 2.13461 6.39937C2.48327 5.69979 2.94163 5.06184 3.49193 4.51025C4.0416 3.95341 4.67431 3.48717 5.36696 3.12853C6.06324 2.77297 6.80843 2.52518 7.57758 2.39348C8.40683 2.2564 9.24507 2.1823 10.0853 2.17177L11.2917 2.15527H148.701L149.922 2.17244C150.755 2.18243 151.585 2.25588 152.407 2.39215C153.184 2.52551 153.937 2.77502 154.641 3.13249C156.029 3.85525 157.158 4.99874 157.87 6.40267C158.218 7.1047 158.46 7.85596 158.586 8.63093C158.724 9.47418 158.802 10.3265 158.818 11.1812C158.822 11.5639 158.822 11.975 158.822 12.3841C158.832 12.8909 158.832 13.3732 158.832 13.8595V42.1415C158.832 42.6324 158.832 43.1115 158.822 43.5945C158.822 44.0339 158.822 44.4365 158.817 44.8508C158.801 45.6902 158.725 46.5274 158.588 47.3555C158.463 48.1408 158.22 48.9019 157.866 49.6123C157.514 50.3048 157.055 50.9367 156.508 51.4849C155.962 52.044 155.33 52.5106 154.637 52.8666C153.935 53.2261 153.183 53.4765 152.407 53.6096C151.58 53.746 150.745 53.8197 149.908 53.83C149.516 53.8392 149.106 53.8445 148.708 53.8445L147.258 53.8472L11.2911 53.8445Z" fill="black"/>
<path d="M33.1181 28.4061C33.1325 27.2782 33.429 26.1723 33.9799 25.1913C34.5308 24.2103 35.3183 23.386 36.269 22.7952C35.665 21.9234 34.8682 21.2059 33.9419 20.6998C33.0155 20.1936 31.9851 19.9127 30.9326 19.8795C28.6873 19.6413 26.5106 21.2373 25.3664 21.2373C24.2002 21.2373 22.4386 19.9031 20.5416 19.9426C19.3146 19.9826 18.1188 20.3432 17.0707 20.9893C16.0226 21.6353 15.1579 22.5447 14.561 23.6289C11.9751 28.1538 13.9039 34.8038 16.381 38.4614C17.6203 40.2524 19.0688 42.253 20.964 42.1821C22.8186 42.1043 23.5113 40.9868 25.7499 40.9868C27.9678 40.9868 28.6177 42.1821 30.5514 42.137C32.5415 42.1043 33.7953 40.338 34.9912 38.53C35.8816 37.2539 36.5668 35.8434 37.0214 34.351C35.8652 33.8567 34.8786 33.0295 34.1845 31.9723C33.4903 30.9151 33.1195 29.6749 33.1181 28.4061V28.4061Z" fill="white"/>
<path d="M29.4659 17.4739C30.551 16.1574 31.0855 14.4653 30.9561 12.7568C29.2983 12.9328 27.767 13.7336 26.6673 14.9996C26.1296 15.618 25.7178 16.3375 25.4554 17.1169C25.193 17.8964 25.0852 18.7204 25.1381 19.542C25.9673 19.5506 26.7876 19.369 27.5372 19.0107C28.2869 18.6525 28.9463 18.127 29.4659 17.4739Z" fill="white"/>
<path d="M56.5617 37.6477H50.2328L48.7129 42.1834H46.0322L52.0269 25.4023H54.812L60.8067 42.1834H58.0803L56.5617 37.6477ZM50.8883 35.5547H55.905L53.4319 28.1935H53.3627L50.8883 35.5547Z" fill="white"/>
<path d="M73.7536 36.0669C73.7536 39.8689 71.7402 42.3116 68.7017 42.3116C67.932 42.3523 67.1666 42.1731 66.493 41.7946C65.8194 41.416 65.2648 40.8534 64.8929 40.1711H64.8354V46.2311H62.3506V29.9489H64.7558V31.9838H64.8015C65.1905 31.3048 65.7544 30.7451 66.4332 30.3642C67.1119 29.9833 67.8801 29.7956 68.656 29.8209C71.7284 29.8209 73.7536 32.2755 73.7536 36.0669ZM71.1996 36.0669C71.1996 33.5899 69.933 31.9614 68.0005 31.9614C66.102 31.9614 64.825 33.6242 64.825 36.0669C64.825 38.5321 66.102 40.183 68.0005 40.183C69.9331 40.183 71.1996 38.5664 71.1996 36.0669Z" fill="white"/>
<path d="M87.0769 36.0669C87.0769 39.8689 85.0634 42.3116 82.025 42.3116C81.2553 42.3523 80.4898 42.1731 79.8162 41.7945C79.1426 41.416 78.5881 40.8534 78.2161 40.1711H78.1586V46.231H75.6738V29.9489H78.079V31.9838H78.1247C78.5137 31.3048 79.0776 30.7451 79.7563 30.3642C80.4351 29.9833 81.2033 29.7956 81.9792 29.8209C85.0517 29.8209 87.0769 32.2755 87.0769 36.0669ZM84.5229 36.0669C84.5229 33.5899 83.2563 31.9614 81.3238 31.9614C79.4252 31.9614 78.1482 33.6242 78.1482 36.0669C78.1482 38.5321 79.4252 40.183 81.3238 40.183C83.2563 40.183 84.5229 38.5664 84.5229 36.0669H84.5229Z" fill="white"/>
<path d="M95.8825 37.5078C96.0666 39.1719 97.6661 40.2646 99.8519 40.2646C101.946 40.2646 103.453 39.1719 103.453 37.6714C103.453 36.3689 102.544 35.589 100.393 35.0545L98.2407 34.5306C95.1918 33.7863 93.7763 32.3452 93.7763 30.0067C93.7763 27.1113 96.2729 25.1226 99.818 25.1226C103.326 25.1226 105.732 27.1113 105.813 30.0067H103.304C103.154 28.332 101.784 27.3212 99.7827 27.3212C97.781 27.3212 96.4113 28.3439 96.4113 29.8325C96.4113 31.0189 97.2861 31.717 99.4262 32.2514L101.256 32.7054C104.662 33.5196 106.078 34.9027 106.078 37.3573C106.078 40.4968 103.603 42.4631 99.6678 42.4631C95.9856 42.4631 93.4995 40.543 93.3389 37.5077L95.8825 37.5078Z" fill="white"/>
<path d="M111.441 27.0535V29.9488H113.743V31.9376H111.441V38.6825C111.441 39.7303 111.902 40.2186 112.914 40.2186C113.187 40.2138 113.46 40.1944 113.732 40.1605V42.1374C113.277 42.2233 112.814 42.2622 112.351 42.2535C109.901 42.2535 108.945 41.3231 108.945 38.9503V31.9376H107.185V29.9488H108.945V27.0535H111.441Z" fill="white"/>
<path d="M115.075 36.0668C115.075 32.2173 117.318 29.7983 120.817 29.7983C124.326 29.7983 126.559 32.2173 126.559 36.0668C126.559 39.9269 124.338 42.3353 120.817 42.3353C117.296 42.3353 115.075 39.9269 115.075 36.0668ZM124.027 36.0668C124.027 33.4261 122.83 31.8676 120.817 31.8676C118.803 31.8676 117.607 33.438 117.607 36.0668C117.607 38.718 118.803 40.2647 120.817 40.2647C122.83 40.2647 124.027 38.718 124.027 36.0668H124.027Z" fill="white"/>
<path d="M128.607 29.9488H130.977V32.0312H131.035C131.195 31.3808 131.572 30.806 132.102 30.4035C132.633 30.0009 133.284 29.7952 133.947 29.8207C134.233 29.8197 134.519 29.8512 134.798 29.9144V32.2635C134.436 32.1518 134.059 32.1006 133.682 32.1117C133.321 32.0969 132.961 32.1612 132.627 32.3003C132.293 32.4393 131.992 32.6498 131.746 32.9172C131.5 33.1846 131.314 33.5026 131.202 33.8495C131.089 34.1963 131.051 34.5638 131.092 34.9266V42.1835H128.607L128.607 29.9488Z" fill="white"/>
<path d="M146.256 38.59C145.922 40.8111 143.781 42.3353 141.043 42.3353C137.522 42.3353 135.336 39.9506 135.336 36.1249C135.336 32.2873 137.533 29.7983 140.939 29.7983C144.288 29.7983 146.394 32.1236 146.394 35.8332V36.6937H137.844V36.8454C137.805 37.2957 137.861 37.7493 138.008 38.1761C138.155 38.6029 138.391 38.9932 138.699 39.3209C139.007 39.6487 139.38 39.9065 139.794 40.0772C140.208 40.2478 140.654 40.3275 141.101 40.3109C141.688 40.3665 142.277 40.2291 142.781 39.919C143.285 39.6089 143.676 39.1428 143.896 38.59L146.256 38.59ZM137.856 34.9385H143.908C143.93 34.5336 143.87 34.1285 143.73 33.7485C143.59 33.3685 143.374 33.0218 143.095 32.7302C142.816 32.4386 142.481 32.2084 142.11 32.0541C141.739 31.8998 141.34 31.8246 140.939 31.8333C140.534 31.8308 140.133 31.9094 139.759 32.0645C139.384 32.2195 139.044 32.448 138.757 32.7367C138.471 33.0254 138.243 33.3686 138.089 33.7465C137.934 34.1244 137.855 34.5295 137.856 34.9385V34.9385Z" fill="white"/>
<path d="M50.5771 12.7714C51.098 12.7336 51.6208 12.8131 52.1076 13.0042C52.5945 13.1954 53.0333 13.4933 53.3924 13.8766C53.7515 14.2599 54.022 14.7189 54.1843 15.2206C54.3466 15.7224 54.3968 16.2542 54.3311 16.7779C54.3311 19.3539 52.9535 20.8347 50.5771 20.8347H47.6953V12.7714H50.5771ZM48.9344 19.6943H50.4387C50.8109 19.7168 51.1834 19.6551 51.5291 19.5138C51.8748 19.3724 52.185 19.1549 52.437 18.8771C52.689 18.5993 52.8766 18.2682 52.986 17.9079C53.0955 17.5476 53.1241 17.1672 53.0697 16.7943C53.1201 16.4229 53.0887 16.0449 52.9775 15.6872C52.8664 15.3296 52.6783 15.0012 52.4269 14.7256C52.1754 14.45 51.8668 14.2341 51.523 14.0932C51.1793 13.9523 50.809 13.8901 50.4387 13.9108H48.9344V19.6943Z" fill="white"/>
<path d="M55.7312 17.7896C55.6934 17.3897 55.7386 16.9862 55.8641 16.6051C55.9896 16.2239 56.1925 15.8734 56.4598 15.5761C56.7271 15.2789 57.053 15.0414 57.4165 14.8788C57.78 14.7163 58.1731 14.6323 58.5705 14.6323C58.968 14.6323 59.3611 14.7163 59.7246 14.8788C60.0881 15.0414 60.4139 15.2789 60.6813 15.5761C60.9486 15.8734 61.1515 16.2239 61.277 16.6051C61.4025 16.9862 61.4477 17.3897 61.4099 17.7896C61.4484 18.1899 61.4037 18.5939 61.2786 18.9757C61.1534 19.3575 60.9506 19.7086 60.6832 20.0065C60.4158 20.3043 60.0897 20.5423 59.7259 20.7052C59.362 20.8681 58.9685 20.9523 58.5705 20.9523C58.1726 20.9523 57.779 20.8681 57.4152 20.7052C57.0513 20.5423 56.7252 20.3043 56.4578 20.0065C56.1904 19.7086 55.9876 19.3575 55.8625 18.9757C55.7374 18.5939 55.6926 18.1899 55.7312 17.7896V17.7896ZM60.1877 17.7896C60.1877 16.4706 59.6014 15.6992 58.5725 15.6992C57.5397 15.6992 56.9586 16.4706 56.9586 17.7896C56.9586 19.1192 57.5397 19.8846 58.5725 19.8846C59.6014 19.8846 60.1877 19.1139 60.1877 17.7896H60.1877Z" fill="white"/>
<path d="M68.9582 20.8348H67.7256L66.4812 16.3532H66.3872L65.148 20.8348H63.9272L62.2676 14.7498H63.4728L64.5513 19.393H64.6401L65.878 14.7498H67.0179L68.2557 19.393H68.3497L69.423 14.7498H70.6112L68.9582 20.8348Z" fill="white"/>
<path d="M72.0068 14.7497H73.1507V15.7163H73.2395C73.3901 15.3691 73.6441 15.0781 73.9662 14.8838C74.2883 14.6894 74.6623 14.6015 75.0362 14.6322C75.3291 14.6099 75.6233 14.6546 75.8968 14.7628C76.1704 14.8711 76.4163 15.0401 76.6165 15.2575C76.8166 15.4748 76.9658 15.7349 77.053 16.0185C77.1402 16.302 77.1631 16.6017 77.1201 16.8955V20.8346H75.9319V17.197C75.9319 16.2191 75.5114 15.7328 74.6327 15.7328C74.4338 15.7235 74.2352 15.7577 74.0506 15.8331C73.866 15.9086 73.6998 16.0235 73.5632 16.1699C73.4267 16.3164 73.3231 16.491 73.2595 16.6817C73.196 16.8724 73.174 17.0748 73.1951 17.2749V20.8347H72.0068L72.0068 14.7497Z" fill="white"/>
<path d="M79.0137 12.3743H80.2019V20.8347H79.0137V12.3743Z" fill="white"/>
<path d="M81.8532 17.7897C81.8154 17.3898 81.8607 16.9863 81.9862 16.6051C82.1117 16.2239 82.3147 15.8734 82.582 15.5762C82.8494 15.2789 83.1753 15.0414 83.5388 14.8788C83.9023 14.7163 84.2954 14.6323 84.6929 14.6323C85.0904 14.6323 85.4835 14.7163 85.847 14.8788C86.2105 15.0414 86.5364 15.2789 86.8038 15.5762C87.0711 15.8734 87.2741 16.2239 87.3996 16.6051C87.5251 16.9863 87.5704 17.3898 87.5325 17.7897C87.5711 18.19 87.5263 18.5941 87.4011 18.9758C87.276 19.3576 87.0731 19.7087 86.8057 20.0066C86.5383 20.3044 86.2121 20.5424 85.8483 20.7053C85.4844 20.8682 85.0909 20.9523 84.6929 20.9523C84.2949 20.9523 83.9014 20.8682 83.5375 20.7053C83.1737 20.5424 82.8475 20.3044 82.5801 20.0066C82.3127 19.7087 82.1098 19.3576 81.9847 18.9758C81.8595 18.5941 81.8147 18.19 81.8532 17.7897V17.7897ZM86.3097 17.7897C86.3097 16.4707 85.7234 15.6993 84.6945 15.6993C83.6617 15.6993 83.0807 16.4707 83.0807 17.7897C83.0807 19.1193 83.6617 19.8847 84.6945 19.8847C85.7234 19.8847 86.3097 19.114 86.3097 17.7897H86.3097Z" fill="white"/>
<path d="M88.7832 19.1139C88.7832 18.0186 89.5902 17.3871 91.0225 17.2974L92.6534 17.2024V16.6772C92.6534 16.0345 92.233 15.6716 91.4208 15.6716C90.7575 15.6716 90.2979 15.9177 90.166 16.3479H89.0156C89.1371 15.3027 90.1098 14.6323 91.4756 14.6323C92.9851 14.6323 93.8364 15.3918 93.8364 16.6772V20.8348H92.6926V19.9797H92.5986C92.4077 20.2864 92.1398 20.5365 91.8221 20.7043C91.5044 20.8722 91.1482 20.9518 90.7901 20.9351C90.5374 20.9616 90.2819 20.9344 90.0402 20.8551C89.7985 20.7757 89.576 20.6461 89.3869 20.4745C89.1978 20.3029 89.0464 20.0932 88.9424 19.8589C88.8384 19.6245 88.7842 19.3708 88.7832 19.1139V19.1139ZM92.6534 18.594V18.0853L91.1832 18.1803C90.354 18.2364 89.9779 18.5214 89.9779 19.0579C89.9779 19.6055 90.448 19.9242 91.0944 19.9242C91.2838 19.9436 91.4751 19.9243 91.657 19.8674C91.8388 19.8105 92.0075 19.7172 92.1529 19.5931C92.2984 19.469 92.4176 19.3166 92.5036 19.145C92.5896 18.9733 92.6405 18.7859 92.6534 18.594V18.594Z" fill="white"/>
<path d="M95.3984 17.7896C95.3984 15.8668 96.3764 14.6488 97.8976 14.6488C98.2739 14.6312 98.6473 14.7223 98.9743 14.9114C99.3012 15.1004 99.5682 15.3796 99.7439 15.7163H99.8327V12.3743H101.021V20.8347H99.8824V19.8733H99.7883C99.599 20.2078 99.3227 20.4835 98.9895 20.6706C98.6562 20.8578 98.2786 20.9492 97.8976 20.935C96.366 20.9351 95.3984 19.717 95.3984 17.7896ZM96.6259 17.7896C96.6259 19.0802 97.2278 19.8569 98.2346 19.8569C99.236 19.8569 99.855 19.069 99.855 17.7949C99.855 16.5267 99.2295 15.7276 98.2346 15.7276C97.2343 15.7276 96.6258 16.5095 96.6258 17.7896H96.6259Z" fill="white"/>
<path d="M105.936 17.7896C105.898 17.3897 105.944 16.9862 106.069 16.6051C106.195 16.2239 106.398 15.8734 106.665 15.5761C106.932 15.2789 107.258 15.0414 107.622 14.8788C107.985 14.7163 108.378 14.6323 108.776 14.6323C109.173 14.6323 109.566 14.7163 109.93 14.8788C110.293 15.0414 110.619 15.2789 110.886 15.5761C111.154 15.8734 111.357 16.2239 111.482 16.6051C111.608 16.9862 111.653 17.3897 111.615 17.7896C111.654 18.1899 111.609 18.5939 111.484 18.9757C111.358 19.3575 111.156 19.7086 110.888 20.0065C110.621 20.3043 110.295 20.5423 109.931 20.7052C109.567 20.8681 109.174 20.9523 108.776 20.9523C108.378 20.9523 107.984 20.8681 107.62 20.7052C107.256 20.5423 106.93 20.3043 106.663 20.0065C106.396 19.7086 106.193 19.3575 106.068 18.9757C105.942 18.5939 105.898 18.1899 105.936 17.7896V17.7896ZM110.393 17.7896C110.393 16.4706 109.806 15.6992 108.778 15.6992C107.745 15.6992 107.164 16.4706 107.164 17.7896C107.164 19.1192 107.745 19.8846 108.778 19.8846C109.806 19.8846 110.393 19.1139 110.393 17.7896Z" fill="white"/>
<path d="M113.211 14.7497H114.355V15.7163H114.444C114.594 15.3691 114.848 15.0781 115.17 14.8838C115.492 14.6894 115.866 14.6015 116.24 14.6322C116.533 14.6099 116.827 14.6546 117.101 14.7628C117.374 14.8711 117.62 15.0401 117.821 15.2575C118.021 15.4748 118.17 15.7349 118.257 16.0185C118.344 16.302 118.367 16.6017 118.324 16.8955V20.8346H117.136V17.197C117.136 16.2191 116.716 15.7328 115.837 15.7328C115.638 15.7235 115.439 15.7577 115.255 15.8331C115.07 15.9086 114.904 16.0235 114.767 16.1699C114.631 16.3164 114.527 16.491 114.464 16.6817C114.4 16.8724 114.378 17.0748 114.399 17.2749V20.8347H113.211V14.7497Z" fill="white"/>
<path d="M125.037 13.2346V14.7773H126.341V15.7889H125.037V18.9178C125.037 19.5552 125.297 19.8343 125.888 19.8343C126.04 19.8338 126.191 19.8246 126.341 19.8066V20.8069C126.128 20.8455 125.912 20.866 125.695 20.8683C124.374 20.8683 123.847 20.3985 123.847 19.2253V15.7888H122.892V14.7773H123.847V13.2346H125.037Z" fill="white"/>
<path d="M127.964 12.3743H129.142V15.7276H129.236C129.394 15.3771 129.655 15.0845 129.983 14.8894C130.312 14.6943 130.692 14.6064 131.071 14.6375C131.363 14.6215 131.654 14.6707 131.925 14.7815C132.195 14.8924 132.438 15.0622 132.636 15.2789C132.834 15.4956 132.982 15.7538 133.07 16.035C133.158 16.3163 133.184 16.6137 133.145 16.9061V20.8347H131.956V17.2023C131.956 16.2304 131.508 15.7381 130.668 15.7381C130.464 15.7212 130.258 15.7496 130.066 15.8213C129.874 15.893 129.7 16.0062 129.555 16.1532C129.411 16.3001 129.3 16.4772 129.23 16.672C129.161 16.8667 129.134 17.0745 129.152 17.2808V20.8347H127.964L127.964 12.3743Z" fill="white"/>
<path d="M140.074 19.1919C139.913 19.748 139.563 20.2291 139.086 20.5509C138.609 20.8728 138.035 21.0149 137.465 20.9524C137.068 20.9629 136.674 20.8862 136.31 20.7273C135.946 20.5685 135.62 20.3315 135.355 20.0326C135.091 19.7338 134.893 19.3803 134.777 18.9968C134.662 18.6132 134.63 18.2088 134.684 17.8115C134.631 17.413 134.664 17.0077 134.779 16.623C134.895 16.2383 135.091 15.8833 135.354 15.5818C135.617 15.2803 135.942 15.0396 136.305 14.8758C136.668 14.712 137.062 14.629 137.46 14.6324C139.135 14.6324 140.146 15.7892 140.146 17.7V18.119H135.894V18.1863C135.876 18.4096 135.903 18.6344 135.976 18.8462C136.048 19.0581 136.164 19.2523 136.315 19.4164C136.465 19.5805 136.649 19.7109 136.852 19.7993C137.056 19.8877 137.276 19.9321 137.498 19.9296C137.782 19.9641 138.07 19.9123 138.325 19.781C138.58 19.6496 138.791 19.4446 138.93 19.1919L140.074 19.1919ZM135.894 17.2309H138.935C138.95 17.0266 138.923 16.8215 138.855 16.6286C138.787 16.4358 138.679 16.2595 138.54 16.111C138.4 15.9625 138.231 15.8452 138.044 15.7666C137.857 15.688 137.656 15.6498 137.453 15.6545C137.248 15.6519 137.044 15.6909 136.853 15.7692C136.663 15.8475 136.49 15.9635 136.345 16.1105C136.2 16.2574 136.085 16.4322 136.008 16.6246C135.93 16.817 135.892 17.0232 135.894 17.2309H135.894Z" fill="white"/>
</svg>
